<?xml version="1.0" encoding="utf-8"?>
<!-- Generator: Adobe Illustrator 21.0.2, SVG Export Plug-In . SVG Version: 6.00 Build 0)  -->
<svg version="1.1" id="Capa_1" xmlns="http://www.w3.org/2000/svg" xmlns:xlink="http://www.w3.org/1999/xlink" x="0px" y="0px"
	 viewBox="0 0 480 480" width="480" height="480" style="enable-background:new 0 0 480 480;" xml:space="preserve">
<style type="text/css">
	.st0{fill:#FFFFFF;}
</style>
<g>
	<g>
		<path class="st0" d="M256,256h-64v16h16c8.8,0,16,7.1,16,16c0,8.8-7.2,16-16,16h-16v16h64c17.6,0,32-14.3,32-32S273.6,256,256,256
			z"/>
	</g>
</g>
<g>
	<g>
		<path class="st0" d="M256,160h-64v64h64c17.6,0,32-14.4,32-32S273.6,160,256,160z"/>
	</g>
</g>
<g>
	<g>
		<path class="st0" d="M464,256c8.8,0,16-7.2,16-16s-7.2-16-16-16h-48v-64h48c8.8,0,16-7.2,16-16s-7.2-16-16-16h-48V96
			c0-17.6-14.3-32-32-32h-32V16c0-8.8-7.2-16-16-16s-16,7.2-16,16v48h-64V16c0-8.8-7.2-16-16-16s-16,7.2-16,16v48h-64V16
			c0-8.8-7.2-16-16-16s-16,7.2-16,16v48H96c-17.7,0-32,14.3-32,32v32H16c-8.8,0-16,7.1-16,16s7.2,16,16,16h48v64H16
			c-8.8,0-16,7.1-16,16s7.2,16,16,16h48v64H16c-8.8,0-16,7.2-16,16s7.2,16,16,16h48v32c0,17.7,14.4,32,32,32h32v48
			c0,8.8,7.2,16,16,16s16-7.2,16-16v-48h64v48c0,8.8,7.2,16,16,16s16-7.2,16-16v-48h64v48c0,8.8,7.2,16,16,16s16-7.2,16-16v-48h32
			c17.7,0,32-14.3,32-32v-32h48c8.8,0,16-7.2,16-16s-7.2-16-16-16h-48v-64H464z M320,288c0,35.3-28.7,64-64,64h-80
			c-8.8,0-16-7.2-16-16v-32h-16c-8.9,0-16-7.2-16-16c0-8.8,7.2-16,16-16h16V144c0-8.9,7.1-16,16-16h80c35.3,0,64,28.7,64,64
			c0,19.2-8.7,36.3-22.1,48C311.3,251.7,320,268.8,320,288z"/>
	</g>
</g>
</svg>
